PathFileType	4	(X/Y/Z)	C:/Users/opensim2020/Desktop/walking_exp_matlab/subject06_walking13_straight_03.trc	
DataRate	CameraRate	NumFrames	NumMarkers	Units	OrigDataRate	OrigDataStartFrame	OrigNumFrames	
100.00	100.00	4	50	mm	100.00	2336	172	
Frame#	Time	LFHD			RFHD			LBHD			RBHD			C7			T10			CLAV			STRN			RBAK			LSHO			LUPA			LELB			LFRM			LWRA			LWRB			LFIN			RSHO			RUPA			RELB			RFRM			RWRA			RWRB			RFIN			LASI			RASI			LPSI			RPSI			LTHI			LKNE			LTIB			LANK			LHEE			LTOE			RTHI			RKNE			RTIB			RANK			RHEE			RTOE			*39			*40			*41			*42			*43			*44			*45			*46			*47			*48			*49			
		X1	Y1	Z1	X2	Y2	Z2	X3	Y3	Z3	X4	Y4	Z4	X5	Y5	Z5	X6	Y6	Z6	X7	Y7	Z7	X8	Y8	Z8	X9	Y9	Z9	X10	Y10	Z10	X11	Y11	Z11	X12	Y12	Z12	X13	Y13	Z13	X14	Y14	Z14	X15	Y15	Z15	X16	Y16	Z16	X17	Y17	Z17	X18	Y18	Z18	X19	Y19	Z19	X20	Y20	Z20	X21	Y21	Z21	X22	Y22	Z22	X23	Y23	Z23	X24	Y24	Z24	X25	Y25	Z25	X26	Y26	Z26	X27	Y27	Z27	X28	Y28	Z28	X29	Y29	Z29	X30	Y30	Z30	X31	Y31	Z31	X32	Y32	Z32	X33	Y33	Z33	X34	Y34	Z34	X35	Y35	Z35	X36	Y36	Z36	X37	Y37	Z37	X38	Y38	Z38	X39	Y39	Z39	X40	Y40	Z40	X41	Y41	Z41	X42	Y42	Z42	X43	Y43	Z43	X44	Y44	Z44	X45	Y45	Z45	X46	Y46	Z46	X47	Y47	Z47	X48	Y48	Z48	X49	Y49	Z49	X50	Y50	Z50	

151	1.500	-1024.77490	865.14783	1668.03748	-895.85187	842.63269	1651.86755	-1050.53076	732.38245	1619.92651	-923.21045	711.44397	1608.96228	-993.70422	717.65247	1458.46582	-990.33234	672.25275	1131.10742	-987.03632	825.33649	1377.54675	-995.27570	859.09937	1201.40540	-920.93152	635.30237	1289.55444	-1151.38684	780.56177	1413.49829	-1220.97717	776.51282	1210.42590	-1230.45447	771.12531	1097.14392	-1254.51672	815.83997	953.55554	-1219.42554	904.11462	856.18976	-1249.21765	842.58948	837.24915	-1254.21045	900.64209	767.76648	-830.06842	769.89032	1408.96570	-749.30707	741.46051	1207.62585	-735.97522	758.74811	1087.32007	-714.14331	775.66730	968.95416	-729.03656	845.20911	830.72308	-701.60785	784.02740	830.58234	-691.76410	821.66321	755.16412	-1097.80237	852.17267	970.48059	-876.97015	850.22784	974.93585	-1071.61755	691.38245	993.66595	-903.27386	698.08569	999.57849	-1162.28784	840.03015	657.02246	-1142.76672	884.33392	499.66782	-1143.29333	737.55603	300.11676	-1112.36133	644.11920	153.63454	-1064.20898	603.35132	155.78680	-1120.83105	750.95605	59.18702	-833.21344	809.85492	637.81378	-861.32520	822.31738	513.42609	-872.20343	760.98383	251.07054	-927.53949	736.06281	68.57744	-972.96191	695.03162	46.33714	-927.83545	888.79266	32.48799	-981.60114	758.00677	1708.71875																														 
152	1.510	-1024.25256	875.12378	1667.78406	-895.32355	852.63483	1651.63733	-1049.92297	742.22449	1619.85083	-922.64771	721.35620	1608.86584	-992.99133	727.40094	1458.35657	-989.62952	681.53363	1131.02795	-986.47852	834.88776	1377.39795	-994.47614	868.45270	1201.22534	-919.84705	644.78259	1289.64258	-1150.90515	790.06744	1413.27905	-1220.26331	783.73187	1210.13306	-1229.92810	776.74030	1097.03357	-1254.58240	816.78497	952.15656	-1220.75366	901.91046	851.52490	-1249.86426	839.36499	834.92383	-1255.69507	894.68665	763.33105	-829.65894	779.34021	1408.93103	-747.98096	753.98926	1207.89258	-733.86145	774.09296	1088.03711	-711.42853	794.36731	970.19012	-726.03015	866.69586	833.61108	-698.04578	805.71198	832.31866	-687.71198	845.29865	757.98303	-1096.36218	862.11383	970.72668	-875.76514	858.72137	974.65601	-1071.46472	701.28082	993.64117	-903.16003	706.86444	999.37555	-1162.28088	853.80133	658.35162	-1142.33289	900.08765	501.69626	-1143.76172	760.15442	296.68143	-1113.29163	672.43427	146.50452	-1064.96167	631.19763	146.89577	-1121.95764	783.23358	56.89146	-832.83618	815.35809	637.17480	-861.05890	827.09149	512.70313	-872.26703	762.93134	250.98105	-927.71143	736.40900	68.72761	-973.13452	695.07202	46.73105	-927.78998	888.83716	32.44006	-981.07605	768.08203	1708.61243																														 
153	1.520	-1023.70807	885.07300	1667.42529	-894.81604	862.58521	1651.24060	-1049.47546	752.16046	1619.67749	-922.18176	731.28839	1608.65222	-992.23499	736.85144	1458.12854	-989.01044	690.72424	1130.82019	-986.03369	844.41791	1377.10718	-993.72003	877.80054	1200.91626	-919.12146	654.28833	1289.21411	-1150.41650	799.46973	1412.92175	-1219.86462	791.10925	1209.81860	-1229.57593	782.44055	1096.88770	-1254.87903	817.87579	950.92188	-1222.23962	899.73676	847.24121	-1250.60425	836.20227	832.93695	-1257.11841	888.74670	759.24963	-829.31586	788.88171	1408.94128	-746.38190	766.78918	1208.17664	-731.65558	789.18665	1088.75537	-708.37207	812.32562	971.64465	-722.99176	888.12158	836.89893	-694.49030	827.37122	834.21039	-683.67346	869.11328	761.22192	-1095.09973	872.16760	970.82709	-874.42383	867.42664	974.29144	-1071.37048	711.03729	993.47827	-903.18457	716.16412	998.75092	-1161.75281	868.37213	659.69019	-1141.98718	915.53619	503.53214	-1144.29968	782.74756	293.09674	-1114.19250	701.28613	139.27444	-1066.10925	660.32690	137.66357	-1123.06689	816.25287	55.00320	-832.95959	822.43164	636.91345	-860.56195	831.90216	511.91525	-872.32959	764.70074	250.87526	-928.04108	736.66565	68.78013	-973.60468	695.61835	46.89887	-927.74493	889.06348	32.54765	-980.49060	778.11322	1708.33789																														 
154	1.530	-1023.25684	895.04700	1666.94434	-894.29767	872.49866	1650.72803	-1048.95276	762.00488	1619.34570	-921.74249	741.14282	1608.33252	-991.82239	746.59973	1457.87354	-988.54779	700.21185	1130.42578	-985.57739	853.96436	1376.70410	-992.97052	887.14771	1200.49072	-918.31995	663.64703	1288.98157	-1149.99719	808.83344	1412.45923	-1219.69812	798.45459	1209.50940	-1229.29871	788.02277	1096.66907	-1255.28247	819.03992	949.79730	-1223.72229	897.43414	843.16083	-1251.46033	833.19067	831.21576	-1258.45996	882.78601	755.47772	-828.98059	798.40637	1408.79517	-745.35498	778.44562	1208.36719	-729.46350	803.76337	1089.44702	-705.60773	830.11810	973.17499	-720.00330	909.38763	840.54254	-690.97516	848.99353	836.38733	-679.79395	892.58923	764.84619	-1093.62878	882.02264	970.89978	-873.31848	875.97681	973.75732	-1071.31738	720.97614	993.14929	-903.02289	724.95898	998.22998	-1162.09680	881.41931	660.82239	-1141.72461	930.58972	505.12354	-1144.79773	805.55231	289.27414	-1115.05603	730.74280	131.97278	-1067.09387	689.75446	128.43394	-1123.85291	849.47650	53.18642	-832.72064	828.00806	636.11896	-860.60297	836.05060	511.26639	-872.31812	766.61536	250.78183	-928.21716	736.90118	68.90194	-973.67291	695.44769	47.28209	-927.71240	889.03406	32.43264	-979.98926	788.12427	1707.96497																														 
